<svg width="249" height="85" viewBox="0 0 249 85" fill="none" xmlns="http://www.w3.org/2000/svg">
<path d="M9.31362 23.2725C10.4476 22.2465 11.815 20.978 13.3576 19.4856C13.9246 18.9353 14.3915 18.4596 14.7417 18.0679C15.1101 17.6524 15.4169 17.1738 15.6505 16.6501C15.9382 15.9789 16.1861 15.2872 16.3926 14.5795L17.4099 11.203H17.3015C16.8869 12.334 16.2483 13.345 15.4338 14.1598C14.6539 14.8995 13.8383 15.5907 12.9907 16.2304C12.0529 16.9453 11.1638 17.7372 10.3309 18.5995C9.33266 19.6679 8.51866 20.9326 7.9295 22.3304V22.2092C8.56319 20.1572 9.0468 18.4223 9.36364 17.0046C9.68049 15.5868 9.96398 14.337 10.1975 13.2737C10.4131 12.3018 10.7322 11.3623 11.148 10.4755C11.6213 9.59489 12.2548 8.8354 13.0074 8.24631V8.12505C11.0837 8.69281 9.41861 10.0432 8.33806 11.9119C7.14187 13.8624 6.51292 16.1783 6.53704 18.5436V26.8168C7.2635 25.4574 8.20423 24.2565 9.31362 23.2725ZM14.3165 13.1524C15.2739 12.049 16.1731 10.8843 17.0096 9.66404C17.8435 8.47949 18.6022 7.36022 19.336 6.29692C20.0784 5.23635 20.9166 4.26428 21.8374 3.39615L21.729 3.2749C21.0368 3.93875 20.2184 4.41725 19.336 4.67398C18.2794 5.04523 17.2683 5.56221 16.3259 6.21297C15.1085 7.09327 14.0644 8.24218 13.2575 9.58943C12.0736 11.6742 11.2269 13.9759 10.7561 16.389C12.0469 15.4618 13.2411 14.3762 14.3165 13.1524ZM2.45139 44.0908C3.17435 45.3082 3.96526 46.4733 4.8194 47.5792C5.79496 48.8873 6.65763 50.2958 7.39586 51.7858H7.50426C7.41591 51.1689 7.3713 50.5451 7.37085 49.9203V48.2321C7.44944 47.1629 7.65122 46.1095 7.97119 45.0982C8.37141 43.6431 8.80499 42.0202 9.2219 40.248C9.6388 38.4758 10.0557 36.6757 10.3642 34.8662C10.6782 33.2749 10.771 31.639 10.6394 30.016H10.506C10.2822 31.0814 9.90479 32.099 9.38866 33.0287L7.72105 36.1067C7.13918 37.2025 6.63995 38.3506 6.22853 39.5391C5.79779 40.8046 5.58285 42.1492 5.59484 43.5032C5.61462 44.1606 5.69566 44.814 5.83664 45.4526C5.94925 45.9402 6.03281 46.4356 6.08679 46.9356H6.01174C5.74467 45.2488 5.34569 43.5915 4.8194 41.9829C4.30244 40.4066 3.78548 38.9422 3.27686 37.6084C2.76824 36.2746 2.32632 35.0434 1.98446 33.9335C1.68245 33.0626 1.50789 32.1429 1.4675 31.2099C1.4675 30.4264 1.4675 29.7922 1.5342 29.3445C1.60091 28.8968 1.60091 28.2718 1.60091 27.563H1.49251C1.15997 28.5695 0.881533 29.5973 0.658707 30.641C0.342749 31.8732 0.171768 33.1462 0.150085 34.4278C0.0966131 36.3484 0.304666 38.2669 0.767102 40.1174C1.15919 41.5237 1.72618 42.8612 2.45139 44.0908ZM21.679 76.1578C22.064 76.2014 22.451 76.22 22.838 76.2138C23.3677 76.2163 23.897 76.1789 24.4222 76.1018C24.9141 76.0179 25.5562 75.906 26.3233 75.7474C27.0904 75.5888 28.1076 75.3277 29.3416 74.9732C30.5757 74.6188 32.2099 74.1711 34.2528 73.6115C32.9103 73.2197 31.7513 72.8466 30.7675 72.4922C29.6568 72.0626 28.6457 71.3616 27.8074 70.4402C26.6068 69.265 25.4144 68.0431 24.2137 66.7839C23.2799 65.8512 22.296 64.9185 21.3538 63.9298C21.087 63.6593 19.6862 62.2882 19.2943 61.8405L19.1942 61.9618C19.3526 62.2416 20.6534 65.1703 20.6534 65.1703C20.6534 65.1703 20.8618 65.4875 20.9452 65.6553C21.2954 66.3549 21.6456 67.0638 21.9875 67.7726C22.1209 68.0524 22.2543 68.3323 22.3794 68.6121C22.8078 69.5238 23.4254 70.3075 24.1804 70.8972C25.4825 72.0745 26.9995 72.9182 28.6246 73.3689V73.4902L26.3483 73.0798C25.7229 72.9586 25.1559 72.8653 24.6807 72.7813C24.2054 72.6974 23.6551 72.6508 23.1298 72.6041C22.6045 72.5575 21.8541 72.5202 21.2287 72.4176C20.6034 72.315 20.2448 72.2217 19.7362 72.1657L18.277 71.9792L17.5099 71.8766C16.6151 71.7768 15.7286 71.599 14.8584 71.345C14.0174 71.1006 13.2117 70.7237 12.4654 70.2257C11.5472 69.5994 10.6918 68.8646 9.91396 68.0338L9.80556 68.155C10.22 68.9527 10.7001 69.7052 11.2397 70.4029C11.8998 71.2615 12.6282 72.0513 13.4159 72.7627C14.367 73.6099 15.4231 74.2979 16.5511 74.8053C17.8892 75.4037 19.2902 75.808 20.7201 76.0086L21.679 76.1578ZM5.21129 39.1194H5.3447C5.40055 38.489 5.50375 37.865 5.65321 37.254C5.8498 36.5562 6.11255 35.8839 6.43698 35.2486C6.93098 34.2841 7.47095 33.3501 8.05457 32.4504C8.75497 31.3498 9.69717 29.8513 10.8812 27.9547C11.6173 26.6743 12.1793 25.2786 12.5488 23.8134C12.9657 22.2371 13.2492 21.0992 13.3826 20.3903H13.2742C13.152 20.743 12.9924 21.0781 12.7989 21.3884C12.588 21.7118 12.3626 22.0231 12.1235 22.3211C11.7762 22.7557 11.4088 23.1698 11.0229 23.5616C10.5727 24.0373 9.96398 24.6715 9.19688 25.427C8.04436 26.4897 7.11614 27.8242 6.47867 29.3351C6.03805 30.6013 5.6895 31.9051 5.43642 33.2339H5.3447C5.3447 32.609 5.41974 31.9934 5.44475 31.3685C5.46977 30.7436 5.44475 30.0067 5.44475 29.0553C5.44475 27.8801 5.37805 26.4997 5.2363 24.914C5.09456 23.3284 5.04453 21.2951 5.04453 18.7674C5.03865 17.9934 5.1808 17.227 5.46143 16.5195C5.73937 15.8107 5.98117 15.1391 6.18684 14.5049H6.1118C4.79044 16.299 3.7604 18.3383 3.06841 20.5303C2.53458 22.3012 2.25321 24.1552 2.2346 26.024C2.25524 28.1408 2.62849 30.2348 3.33523 32.1986C4.10732 34.4525 4.73427 36.7654 5.21129 39.1194ZM16.2259 69.7687L20.645 70.8972L22.9463 71.4849C22.0953 70.4445 21.341 69.3101 20.6951 68.0991C20.1342 67.0719 19.673 65.9806 19.3193 64.8439C18.8968 63.5567 18.2937 61.8436 17.5099 59.7046C17.3188 59.0667 17.0904 58.4435 16.8262 57.8391C16.5761 57.2919 16.2981 56.723 15.9924 56.1323C15.6672 55.5353 15.2837 54.8731 14.8251 54.1176C14.3665 53.3621 13.7828 52.4387 13.0741 51.3194L12.9657 51.4407C13.1741 52.2241 13.4743 53.6512 13.8662 55.6939C14.2581 57.7365 14.6166 59.6766 14.9752 61.4954C15.184 62.8463 15.6723 64.124 16.401 65.2263C17.2457 66.5094 18.2193 67.6799 19.3026 68.7147L19.1942 68.8359C18.2586 68.3737 17.3967 67.7436 16.6428 66.9705C15.4708 65.8918 14.1856 64.9772 12.8156 64.2469C10.6361 63.0763 8.52509 61.7523 6.49535 60.2829C4.96434 59.1362 3.76488 57.5157 3.04339 55.6193L2.935 55.7312C3.32587 57.5974 3.9848 59.3803 4.8861 61.0104C5.74995 62.5531 6.80872 63.948 8.02955 65.1517C9.22088 66.3219 10.544 67.3128 11.9651 68.0991C13.3131 68.8641 14.7458 69.4255 16.2259 69.7687ZM6.33693 57.578L14.1747 63.3795C13.8245 62.5867 13.5327 61.8405 13.2909 61.1316C13.0297 60.3668 12.8316 59.577 12.6989 58.7719C12.5655 57.9044 12.4404 56.9064 12.3403 55.8711C12.2403 54.8358 12.1152 53.53 11.9818 52.0283C11.7066 49.426 11.4648 47.4206 11.2564 45.9936C11.0109 44.4176 10.6312 42.8716 10.1224 41.3766H10.0057C10.0184 42.5138 9.96827 43.6508 9.85559 44.781C9.75881 45.66 9.61683 46.532 9.43035 47.3926C9.25525 48.1761 9.1135 48.9037 9.01345 49.5752C8.89988 50.3364 8.84687 51.1074 8.85502 51.879C8.91031 53.0397 9.14151 54.1815 9.53874 55.2555C9.90891 56.4133 10.3433 57.5441 10.8395 58.6413L10.7394 58.7625C9.71135 56.8862 8.52468 55.1247 7.19575 53.502L4.01895 49.7151C3.12828 48.664 2.31412 47.5349 1.58423 46.3387C0.867327 45.0893 0.416595 43.6725 0.266818 42.1974C0.180056 42.5688 0.113232 42.9457 0.0667045 43.326C0.0226228 43.697 0.0003402 44.0709 0 44.4452C0.00796174 45.8308 0.222122 47.2051 0.633693 48.5119C1.03755 49.8525 1.56865 51.1408 2.21792 52.3547C2.80675 53.4812 3.49682 54.5376 4.27743 55.5073C4.88339 56.2916 5.57535 56.9873 6.33693 57.578ZM70.615 6.27826C71.3488 7.34157 72.1326 8.47016 72.9414 9.65472C73.7821 10.8711 74.6811 12.0356 75.6346 13.1431C76.7114 14.3834 77.9115 15.4819 79.2116 16.417C78.7408 14.0038 77.8941 11.7022 76.7102 9.61741C75.8985 8.27082 74.8485 7.12482 73.6251 6.25028C72.6844 5.58655 71.6732 5.05701 70.615 4.67398C69.7368 4.40274 68.9227 3.91873 68.2304 3.25624L68.122 3.3775C69.0416 4.25432 69.8771 5.23586 70.615 6.30624V6.27826ZM77.544 70.2443C76.7966 70.742 75.9913 71.1218 75.151 71.3729C74.2764 71.6188 73.3877 71.7964 72.4911 71.9046L71.7324 71.9979L70.2649 72.1844C69.7646 72.2497 69.281 72.3523 68.7807 72.4362C68.2804 72.5202 67.505 72.5855 66.8796 72.6321C66.2542 72.6787 65.8457 72.7254 65.3287 72.8093C64.8118 72.8933 64.2448 72.9865 63.6611 73.0985C63.0774 73.2104 62.2853 73.3596 61.3848 73.5089V73.3969C62.9973 72.9315 64.4997 72.0785 65.7873 70.8972C66.5211 70.3011 67.1206 69.5219 67.5383 68.6214L67.9302 67.782C68.2721 67.0731 68.6223 66.3735 68.9725 65.674C69.0611 65.506 69.1585 65.3441 69.2643 65.189C69.2643 65.189 70.565 62.2602 70.7234 61.9711L70.6234 61.8498C70.2232 62.3069 68.8307 63.7153 68.5639 63.9485C67.6217 64.8812 66.6378 65.8139 65.7039 66.8026C64.5033 68.0524 63.3109 69.2743 62.1102 70.4495C61.2866 71.3664 60.2933 72.07 59.2002 72.5108C58.2164 72.8653 57.0574 73.2384 55.7149 73.6301C57.7578 74.1804 59.4004 74.6375 60.626 74.9919C61.8517 75.3463 62.869 75.5982 63.6361 75.7567C64.4032 75.9153 65.0536 76.0365 65.5455 76.1112C66.0701 76.1962 66.5997 76.2367 67.1297 76.2324C67.5466 76.2324 67.9635 76.2324 68.2887 76.1765L69.2976 76.0552C70.7275 75.8547 72.1286 75.4503 73.4667 74.852C74.5921 74.3388 75.6475 73.6512 76.6018 72.8093C77.4108 72.092 78.1588 71.2927 78.8364 70.4216C79.3779 69.7255 79.8581 68.9728 80.2705 68.1737L80.0954 68.0991C79.314 68.9116 78.4589 69.6305 77.544 70.2443ZM83.4723 60.2549C81.4407 61.7208 79.3299 63.0447 77.1521 64.219C75.7787 64.9424 74.4927 65.8575 73.3249 66.9425C72.5686 67.7123 71.7073 68.342 70.7735 68.8079L70.6651 68.6867C71.7445 67.6473 72.7176 66.4774 73.5667 65.1983C74.2928 64.0943 74.7808 62.8174 74.9925 61.4674C75.3539 59.6579 75.7235 57.7272 76.1015 55.6752C76.4934 53.6232 76.7936 52.2055 77.002 51.4127L76.8936 51.3101C76.1849 52.42 75.6012 53.3434 75.1426 54.1082C74.684 54.8731 74.3088 55.526 73.9753 56.1136C73.6418 56.7012 73.3749 57.2795 73.1248 57.8391C72.8592 58.4428 72.6308 59.0661 72.4411 59.7046C71.6573 61.8405 71.057 63.5474 70.6317 64.8532C70.2782 65.9871 69.817 67.0753 69.256 68.0991C68.6057 69.2924 67.8516 70.4109 67.0047 71.4382L69.306 70.8972L73.7252 69.8153C75.2072 69.4574 76.6401 68.8802 77.9859 68.0991C79.4055 67.3098 80.7282 66.3192 81.9215 65.1517C83.1351 63.9524 84.1882 62.564 85.0482 61.029C85.9562 59.3839 86.6207 57.5854 87.016 55.7032L86.9076 55.582C86.1912 57.4788 84.9978 59.1022 83.4723 60.2549ZM86.7158 37.5991C86.16 38.9422 85.6319 40.4035 85.1316 41.9829C84.6055 43.598 84.2065 45.2614 83.9393 46.9543H83.8392C83.8932 46.4543 83.9768 45.9589 84.0894 45.4712C84.234 44.8331 84.3178 44.1797 84.3395 43.5219C84.3507 42.1679 84.1358 40.8235 83.7058 39.5578C83.2927 38.3701 82.7935 37.2221 82.2133 36.1254C81.6463 35.0621 81.096 34.0361 80.5457 33.0567C80.0312 32.1227 79.654 31.1024 79.4284 30.0347H79.32C79.1884 31.6576 79.2812 33.2935 79.5951 34.8848C79.9175 36.7005 80.2983 38.4945 80.7375 40.2667C81.1766 42.0388 81.5935 43.6555 81.9882 45.1168C82.3074 46.1284 82.5092 47.1817 82.5885 48.2508V49.911C82.5884 50.5358 82.5438 51.1596 82.4551 51.7764H82.5468C83.2855 50.2875 84.1512 48.8819 85.1316 47.5792C85.9838 46.4715 86.7746 45.3065 87.4996 44.0908C88.2333 42.8613 88.8113 41.5242 89.2173 40.1174C89.6884 38.2526 89.9021 36.3182 89.851 34.3812C89.8298 33.0995 89.6589 31.8264 89.3423 30.5943C89.1208 29.5503 88.8423 28.5223 88.5085 27.5163H88.3835C88.3835 28.2252 88.3835 28.8222 88.4502 29.2885C88.5169 29.7549 88.5169 30.3891 88.5169 31.154C88.4749 32.0868 88.3004 33.0061 87.9999 33.8775C87.6247 35.0341 87.1911 36.2653 86.7158 37.5991ZM83.5057 29.3165C82.8677 27.8086 81.9394 26.4772 80.7875 25.4177L78.9531 23.5523C78.5029 23.0766 78.1193 22.6196 77.8608 22.3024C77.6218 22.0044 77.3964 21.6931 77.1854 21.3697C76.9863 21.0466 76.8264 20.6953 76.7102 20.3251H76.6018C76.7435 21.0339 77.027 22.1905 77.4356 23.7575C77.8083 25.2214 78.3701 26.6165 79.1032 27.8988C80.2872 29.7642 81.2294 31.2845 81.9298 32.3945C82.5134 33.2941 83.0534 34.2282 83.5474 35.1926C83.8707 35.8318 84.1334 36.507 84.3312 37.2073C84.4814 37.8182 84.5846 38.4422 84.6397 39.0728H84.7731C85.2357 36.7177 85.8545 34.4043 86.6241 32.152C87.3313 30.1756 87.7018 28.0688 87.7164 25.94C87.6972 24.0682 87.4158 22.2113 86.8826 20.437C86.1879 18.2635 85.1578 16.2431 83.8392 14.4676H83.7308C83.9393 15.0925 84.1811 15.764 84.4562 16.4729C84.7361 17.1806 84.8783 17.9469 84.8731 18.7208C84.8731 21.2516 84.8064 23.3035 84.673 24.8767C84.5396 26.4499 84.4729 27.8304 84.4729 29.018C84.4729 29.9507 84.4729 30.7342 84.4729 31.3218C84.4729 31.9095 84.5313 32.5251 84.573 33.1873H84.4729C84.2289 31.8691 83.8915 30.5748 83.464 29.3165H83.5057ZM78.7947 10.5035C79.2111 11.39 79.5303 12.3295 79.7452 13.3017C79.987 14.365 80.2705 15.6055 80.579 17.0325C80.8875 18.4596 81.3711 20.1851 82.0132 22.2371V22.3584C81.4209 20.9626 80.6073 19.6985 79.6118 18.6275C78.7772 17.7703 77.8882 16.9816 76.952 16.2677C76.1031 15.6258 75.2849 14.9346 74.5006 14.1971C73.6921 13.3656 73.0597 12.3427 72.6495 11.203H72.5411C72.9664 12.6208 73.3082 13.74 73.5584 14.5702C73.762 15.279 74.01 15.9709 74.3005 16.6408C74.5321 17.1635 74.836 17.6419 75.201 18.0585C75.5595 18.4596 76.0348 18.926 76.5934 19.4763C78.1554 20.9749 79.5034 22.2371 80.6374 23.2631C81.7378 24.2581 82.6673 25.4685 83.3806 26.8355V18.5529C83.403 16.1908 82.7741 13.8785 81.5796 11.9306C80.5035 10.0612 78.8407 8.71024 76.9186 8.14371V8.26496C77.6759 8.8577 78.3147 9.61999 78.7947 10.5035ZM66.5461 78.5922C65.9596 78.5806 65.3758 78.5025 64.8034 78.359L62.844 77.9486C62.2186 77.7248 61.5099 77.4543 60.7094 77.1372C59.909 76.82 58.9251 76.4283 57.7911 75.9526L53.2802 74.2364C52.3049 73.8706 51.2822 73.6879 50.2535 73.6954C49.2152 73.7118 48.1812 73.8493 47.1684 74.1058C46.1178 74.367 45.3507 74.5722 44.8504 74.7214C44.4085 74.5722 43.6748 74.367 42.6242 74.1058C41.6197 73.85 40.5941 73.7124 39.5641 73.6954C38.5384 73.7016 37.521 73.9003 36.5541 74.283C35.5285 74.6748 34.0526 75.2157 32.0598 76.0459C29.7335 76.9786 28.0075 77.6502 26.8819 78.0419C25.753 78.4308 24.5778 78.6258 23.3966 78.6202C22.9002 78.6204 22.4043 78.583 21.9124 78.5083C21.4793 78.4446 21.054 78.3256 20.645 78.1538C20.645 78.1538 19.6528 77.8274 19.1025 77.5662L17.0847 76.4936L16.9846 76.6055C18.1105 77.8212 19.3551 78.8913 20.6951 79.7954C22.4584 80.985 24.4727 81.6288 26.5317 81.6609C27.2906 81.6645 28.0486 81.6053 28.7997 81.4836C29.4905 81.3572 30.1652 81.138 30.8091 80.8307C31.4762 80.5229 32.2183 80.1219 33.0271 79.6555C33.8359 79.1891 34.8114 78.5549 35.937 77.7901C37.0627 77.0252 38.1383 76.2324 38.9471 75.7194C39.8064 75.1986 40.7715 74.9352 41.7487 74.9546C42.1793 74.9599 42.6066 75.0386 43.0161 75.1878C41.6319 76.0583 40.0366 77.1154 38.23 78.359C36.2945 79.7038 34.5351 81.3423 33.002 83.2278L34.7947 85C36.3703 82.9148 38.121 81.0033 40.0227 79.2917C41.4713 77.8781 43.1159 76.7377 44.8921 75.9153C46.6625 76.7503 48.3055 77.8895 49.7616 79.2917C51.6831 80.9873 53.4484 82.8933 55.0312 84.9813L56.8322 83.2092C55.2751 81.3166 53.4837 79.6833 51.5125 78.359C49.6782 77.1154 48.055 76.077 46.6431 75.2437C47.0955 75.1096 47.5596 75.0314 48.0272 75.0105C49.0071 74.9912 49.9748 75.2546 50.8372 75.7754C51.6543 76.2915 52.6632 76.9817 53.8639 77.846L56.6238 79.6648C57.3179 80.1278 58.046 80.5241 58.8 80.8494C59.443 81.1132 60.1002 81.3313 60.7678 81.5023C61.4513 81.6567 62.1467 81.7348 62.844 81.7355H63.2692C64.9291 81.6936 66.5659 81.2913 68.0886 80.5509C69.9097 79.6809 71.5231 78.3456 72.7996 76.6521V76.4936C71.6615 77.1049 70.4922 77.6406 69.2976 78.0979C68.4088 78.4185 67.48 78.5791 66.5461 78.5735V78.5922ZM89.9427 44.2587C89.9427 44.1374 89.9427 44.0162 89.9427 43.8949C89.9347 43.7106 89.918 43.527 89.8927 43.3446C89.8426 42.9902 89.7759 42.6171 89.6925 42.216C89.5415 43.6865 89.0938 45.0993 88.3835 46.348C87.6521 47.535 86.8439 48.6604 85.9654 49.7151L85.7903 49.9203L82.7803 53.5113C81.4796 55.1085 80.3155 56.8385 79.3033 58.6786C79.7947 57.5907 80.2101 56.4618 80.5457 55.3021C80.9157 54.2246 81.1296 53.0879 81.1794 51.935C81.1833 51.1604 81.1303 50.3868 81.021 49.6219C80.9153 48.9503 80.7903 48.2228 80.6457 47.4393C80.454 46.6465 80.3289 45.7137 80.2288 44.781C80.1055 43.6515 80.0442 42.5145 80.0454 41.3766H79.962V41.4512V41.3859H79.8536C79.3423 42.896 78.9625 44.4578 78.7196 46.0495C78.5195 47.4673 78.2694 49.4819 77.9942 52.0749C77.8608 53.5766 77.7441 54.8731 77.6357 55.9271C77.5273 56.981 77.4106 57.9511 77.2772 58.8278C77.1506 59.6163 76.9608 60.3905 76.7102 61.141C76.5017 61.7472 76.2516 62.3908 75.9681 63.0064C75.9181 63.1183 75.8597 63.2209 75.8013 63.3329H75.843L78.4695 61.3835L83.7558 57.522C84.5157 56.9289 85.2074 56.2335 85.8153 55.4514C86.5871 54.4968 87.2611 53.4488 87.8248 52.3268C88.1981 51.5781 88.5322 50.8057 88.8254 50.0136C89.0172 49.5193 89.2006 49.0156 89.359 48.4839C89.7718 47.1743 89.986 45.7966 89.9927 44.4079C89.951 44.38 89.9427 44.3147 89.9427 44.24V44.2587ZM59.2002 9.41221C59.3998 9.50783 59.5898 9.62663 59.7672 9.76664C59.8916 9.91471 60.0085 10.0704 60.1174 10.233C60.1967 10.3764 60.3338 10.467 60.4843 10.4755C60.6844 10.4755 60.7928 10.3916 60.7928 10.233C60.7928 10.0744 60.7928 10.0185 60.7428 10.0558C60.6928 10.0931 60.6844 10.0558 60.6844 9.87857C60.706 9.62459 60.6337 9.37178 60.4843 9.17903C60.2512 8.89013 59.8823 8.79346 59.5588 8.93652C59.5069 8.87252 59.4355 8.83258 59.3587 8.82459H59.2002C59.0001 8.82459 58.8917 8.89921 58.8917 9.05777C58.8917 9.21634 59.0085 9.33759 59.2002 9.41221ZM47.9689 6.53942H48.1857C48.597 6.37622 49.0261 6.27582 49.4614 6.24095H50.9456C51.1901 6.26345 51.4293 6.15225 51.5876 5.94248C51.7087 5.77415 51.8149 5.59296 51.9044 5.4015C51.5902 4.95031 51.1339 4.65012 50.6287 4.56205C50.2785 4.49553 49.9248 4.45503 49.5698 4.4408C49.1322 4.53754 48.7047 4.68444 48.2941 4.87918C47.5853 5.159 47.1601 5.34554 47.0183 5.42949C46.6598 5.34554 46.4513 5.42949 46.3846 5.68132C46.5634 5.88115 46.7557 6.06514 46.96 6.23163C47.2581 6.45258 47.6118 6.56049 47.9689 6.53942ZM44.7754 71.3916C57.6824 71.3954 69.3205 62.7009 74.2621 49.3628C79.2038 36.0247 76.4758 20.67 67.3503 10.4592C58.2248 0.248535 44.4992 -2.80711 32.5743 2.71729C20.6494 8.2417 12.874 21.2581 12.874 35.6963C12.8923 55.3981 27.163 71.3659 44.7754 71.3916ZM14.4999 36.6011H19.3526C19.4197 38.9831 19.7559 41.3461 20.3532 43.6338C20.2017 43.595 20.07 43.4911 19.9863 43.3446L19.8363 43.1767L19.3026 42.3373L18.4188 42.7011C18.4188 43.2514 18.2437 43.4566 17.8935 43.298C17.7866 43.1566 17.6333 43.0692 17.4682 43.0555C17.2138 43.0376 16.9635 43.1339 16.7726 43.3229C16.5817 43.5119 16.466 43.7782 16.451 44.0628C16.3724 44.5157 16.3195 44.9736 16.2926 45.4339L17.0347 47.5792C17.1847 47.8217 17.3932 47.859 17.6767 47.7004C17.883 47.9869 18.1058 48.258 18.3437 48.5119C18.4872 48.6722 18.683 48.7598 18.8857 48.7544C18.9762 48.7699 19.0679 48.7369 19.1334 48.6654C19.199 48.594 19.2307 48.4922 19.2192 48.3907H19.3276C19.4832 48.5624 19.6307 48.7429 19.7695 48.9316C19.9295 49.1372 20.1148 49.3162 20.3199 49.4633V49.3514C20.5581 49.6209 20.8815 49.775 21.2204 49.7804C21.3211 50.273 21.5369 50.7268 21.8457 51.0956C22.0526 51.3781 22.354 51.5534 22.6795 51.5806C22.8446 51.5668 22.9978 51.4794 23.1048 51.3381C23.2176 51.7696 23.3952 52.1764 23.6301 52.5413C23.8146 52.6465 23.9928 52.7649 24.1637 52.8957C24.3157 53.0013 24.4581 53.1231 24.5889 53.2595H24.8057C24.9045 53.6166 25.0857 53.9383 25.331 54.1922C25.526 54.4155 25.7411 54.6156 25.9731 54.7891H25.9064H25.9647H26.0398C26.1148 54.8824 26.1815 54.9757 26.2566 55.0596L22.8296 58.8931C17.6894 52.8666 14.7226 44.9269 14.4999 36.6011ZM37.8465 26.5929C37.7581 26.5247 37.6663 26.4624 37.5713 26.4064L37.2461 26.0426C39.111 24.2278 41.4514 23.1381 43.9166 22.9367V26.7142C43.8743 26.6744 43.8264 26.6429 43.7748 26.6209C43.7425 26.5847 43.7145 26.5439 43.6914 26.4997C43.6147 26.445 43.5233 26.4219 43.433 26.4344C43.3942 26.43 43.355 26.43 43.3162 26.4344C43.2387 26.424 43.1603 26.424 43.0828 26.4344C43.0024 26.4673 42.9181 26.4862 42.8326 26.4903C42.789 26.5043 42.7428 26.5043 42.6992 26.4903C42.5992 26.4064 42.5491 26.2385 42.5491 25.9494C42.2573 26.1079 42.0989 26.2665 42.0655 26.4251C42.0322 26.5836 41.9738 26.8541 41.9071 27.2552C41.8434 27.5634 41.6363 27.8093 41.3651 27.8988C41.1277 27.9882 40.9092 28.131 40.7231 28.3185L40.3979 28.0853H39.8643C39.7703 27.9676 39.6606 27.867 39.5391 27.7868C39.4617 27.7404 39.3913 27.6806 39.3306 27.6096C39.2639 27.5288 39.2306 27.5288 39.2306 27.6096C39.162 27.6018 39.0934 27.625 39.0402 27.6741C38.9869 27.7231 38.9534 27.7939 38.9471 27.8708L38.6302 27.5257H38.7136V27.2459C38.4575 26.9953 38.1779 26.7764 37.8798 26.5929H37.8465ZM36.1038 24.7275L32.8436 21.0806C35.8857 17.9621 39.8112 16.1396 43.9333 15.9319V21.0899C41.0405 21.3061 38.2958 22.5998 36.1372 24.7648L36.1038 24.7275ZM37.9715 41.9829C38.1383 41.7963 38.0633 41.4512 38.13 41.218L37.7631 41.5911C38.0201 41.3226 38.2343 41.0072 38.3968 40.6584C38.48 40.4281 38.5863 40.209 38.7136 40.0055C38.8304 40.2573 38.9638 40.5092 39.0972 40.7517L36.1205 44.0815C34.9117 42.546 34.0534 40.7058 33.6191 38.7183C33.8751 38.7562 34.125 38.8348 34.3612 38.9515C34.5974 39.1608 34.8203 39.3883 35.0282 39.6324C35.1794 39.6322 35.3283 39.5906 35.4618 39.5111L35.887 39.8749C35.8643 40.0788 35.9024 40.2854 35.9954 40.4625C35.9954 40.5465 36.1038 40.6397 36.3206 40.761C36.4968 40.8494 36.6471 40.9917 36.7542 41.1714L36.9626 41.0595C36.9551 40.8999 36.9384 40.741 36.9126 40.5838C36.9126 40.3506 36.9126 40.2293 36.9626 40.2293L37.1711 41.0595L37.3879 41.9922C37.5722 42.0955 37.7899 42.092 37.9715 41.9829ZM44.3168 45.7137C44.4919 45.9096 44.5753 46.0495 44.5753 46.1241C44.5753 46.3667 44.2918 46.4786 43.7415 46.4786C43.5247 46.4786 43.3829 46.7118 43.3079 47.1595C43.2329 47.6072 43.1661 47.9896 43.0994 48.2881H42.9243C42.9243 48.2881 42.9243 48.2881 42.9243 48.3347C40.8324 47.9564 38.8754 46.9361 37.2711 45.3873L40.1478 42.1694C41.2538 43.3367 42.6776 44.0558 44.1917 44.2121C44.1792 44.3874 44.214 44.5629 44.2918 44.7157C44.1525 44.8708 44.077 45.0836 44.0833 45.3034C44.05 45.3873 44.1334 45.5272 44.3168 45.7137ZM30.1421 45.9376C30.1062 45.2587 30.0338 44.5828 29.9253 43.9136C29.8356 43.5493 29.727 43.1912 29.6001 42.841C29.5603 42.2907 29.4479 41.7501 29.2666 41.2367C28.9927 40.693 28.6532 40.1939 28.2577 39.7537V39.0634C28.2134 38.8248 28.1434 38.593 28.0492 38.3732V38.252C28.0306 38.1177 28.101 37.9879 28.216 37.9442L29.3333 37.5151C29.308 37.147 29.3448 36.7768 29.4417 36.4238L30.2171 36.5731C30.4339 36.5731 30.5423 36.4145 30.5423 36.0787C30.4942 35.8262 30.4244 35.5794 30.3339 35.3419C30.2177 35.0721 30.1443 34.7817 30.1171 34.4838C30.1171 34.3159 30.2255 34.176 30.4339 34.0547C30.6291 33.9377 30.8462 33.8738 31.0676 33.8682C31.3625 33.8483 31.6448 34.0044 31.8097 34.2786C31.9508 34.5638 32.0227 34.8854 32.0182 35.2113C32.0196 35.4271 32.0028 35.6426 31.9681 35.8549C31.9307 36.0259 31.9111 36.2012 31.9098 36.3772L32.1266 36.4985C31.982 37.2819 31.7041 37.6737 31.2927 37.6737C31.0973 37.6587 30.9262 37.5215 30.8508 37.3192C30.787 37.1518 30.646 37.0371 30.484 37.0208C30.4172 37.0208 30.3839 37.0208 30.3839 37.142C30.3862 37.3098 30.4203 37.4751 30.484 37.627C30.5632 37.8131 30.6004 38.0181 30.5924 38.224C30.5924 38.7836 30.3672 38.9795 29.9253 38.8209C29.7752 39.1194 29.9253 39.2686 30.3589 39.2686C30.509 39.7537 30.6591 39.9495 30.8091 39.8749C30.9304 39.6239 31.0042 39.3477 31.0259 39.0634C31.0679 38.7447 31.1405 38.4319 31.2427 38.1307L31.3595 38.252L31.8014 38.1307C31.7966 38.1897 31.7966 38.249 31.8014 38.3079H31.9264C32.3557 40.9329 33.4264 43.3735 35.0199 45.3593L30.5006 50.3774C30.3038 50.181 30.2122 49.8843 30.2588 49.5939C30.3505 49.1089 30.7841 48.8104 30.8425 48.3067L30.9509 47.374C30.6213 46.9515 30.359 46.4688 30.1754 45.9469L30.1421 45.9376ZM27.5656 38.4758C27.6377 38.618 27.675 38.7788 27.674 38.9422C27.674 39.1847 27.6073 39.2873 27.4572 39.2407H27.3822C27.2325 38.3536 27.1378 37.4561 27.0987 36.5544H28.0159C28.0135 36.7212 27.9823 36.8859 27.9242 37.0394C27.8443 37.2041 27.7552 37.363 27.6574 37.5151C27.5575 37.6459 27.4989 37.8098 27.4906 37.9815C27.4886 38.1658 27.5258 38.348 27.599 38.5131L27.5656 38.4758ZM27.0987 34.7449C27.3093 30.1497 28.9492 25.7813 31.7347 22.3957L35.0199 26.0333L34.9281 26.1546C34.7327 26.2068 34.5426 26.2818 34.3612 26.3784C34.2194 26.5743 34.0693 26.7981 33.8942 27.078C33.5381 27.2319 33.1995 27.4322 32.8853 27.6749C32.5806 27.9544 32.3013 28.2668 32.0515 28.6076C31.6263 28.8501 31.3595 28.9807 31.2177 29.0274C31.074 29.0893 30.9454 29.1883 30.8425 29.3165C30.9842 29.7176 30.9842 29.9321 30.8425 29.9694L29.7752 30.2679C29.6951 30.2795 29.6213 30.3224 29.5668 30.3891L29.2499 30.7436C29.1846 30.8719 29.1474 31.0158 29.1415 31.1633C29.1363 31.308 29.099 31.449 29.0331 31.5737C28.8259 31.7337 28.6476 31.9363 28.5078 32.1706C28.3823 32.5144 28.3823 32.8995 28.5078 33.2433L28.6412 34.4278H28.5912C28.6333 34.5451 28.664 34.667 28.6829 34.7916L27.0987 34.7449ZM36.1372 46.6465C37.7553 48.2395 39.7 49.3608 41.7987 49.911L41.3318 50.0882C40.9952 50.1729 40.74 50.4806 40.6897 50.8624C40.623 51.3381 40.4646 51.6459 40.2145 51.7951C39.9643 51.9443 39.881 52.0936 39.9477 52.3361C40.3 52.7367 40.5554 53.231 40.6897 53.7725C40.8269 54.3331 41.2441 54.7524 41.757 54.8451L42.3907 55.0876C42.6192 55.1089 42.8382 55.1992 43.0244 55.3488C43.2078 55.3488 43.3913 55.4047 43.5747 55.4514C39.5871 55.1405 35.8135 53.3177 32.877 50.2841L36.1372 46.6465ZM31.7347 19.84L28.5162 16.2304C32.7181 11.8223 38.2092 9.27317 43.9666 9.05777V14.1598C39.4166 14.3731 35.082 16.386 31.7347 19.84ZM30.6007 21.1179C27.5092 24.8596 25.7092 29.7101 25.5228 34.8009H20.9619C21.1524 28.3573 23.4314 22.2111 27.3739 17.5082L30.6007 21.1179ZM25.5228 36.6011C25.559 37.4826 25.6426 38.361 25.773 39.2313C25.7093 39.1165 25.6509 38.9982 25.5979 38.8769C25.3477 38.4945 25.1309 38.2986 24.9725 38.2986C24.7848 38.2796 24.6084 38.4011 24.5389 38.5971C24.465 38.7978 24.3542 38.979 24.2137 39.1287C23.8666 39.4234 23.4649 39.6274 23.0381 39.7257C22.7103 40.1259 22.4881 40.6198 22.396 41.1527C22.3197 41.3069 22.3398 41.4983 22.4461 41.6284C22.5545 41.787 22.4961 41.9455 22.2876 42.1041C22.4294 42.4212 22.4627 42.6171 22.396 42.7011C22.4627 42.8596 22.4461 42.9156 22.3377 42.8783C22.2466 42.8366 22.1422 42.8585 22.0709 42.9342C22.0038 43.0111 21.9526 43.1034 21.9208 43.2047C21.3503 41.0584 21.028 38.8391 20.9619 36.6011H25.5228ZM43.9666 69.5635C36.4938 69.3338 29.363 66.0101 23.9553 60.2362L27.3822 56.3934C31.8859 61.1429 37.7883 63.8835 43.9749 64.0977L43.9666 69.5635ZM43.9666 62.3349C38.2399 62.1203 32.7759 59.5959 28.5829 55.2275C28.8418 55.3779 29.1256 55.4668 29.4167 55.4887C29.7063 55.4643 29.9893 55.3789 30.2505 55.2368C30.5783 55.0891 30.8984 54.9209 31.2094 54.7332C31.5423 54.7587 31.8749 54.6779 32.1682 54.5C32.4412 54.5828 32.729 54.5828 33.002 54.5C33.2418 54.4321 33.4013 54.1784 33.3773 53.903C33.3579 53.6288 33.217 53.3837 33.002 53.2501C32.7436 53.0543 32.6185 52.8771 32.6185 52.7185C32.6185 52.5599 32.5518 52.5413 32.4017 52.42C32.1524 52.1562 31.9237 51.8692 31.718 51.5619C35.0661 55.0133 39.4008 57.0229 43.9499 57.2329L43.9666 62.3349ZM44.8004 49.0902C44.442 49.1214 44.082 49.0574 43.7498 48.9037C43.7498 48.8011 43.6748 48.6985 43.6414 48.5865C43.8006 48.4528 43.9678 48.3312 44.1417 48.2228C44.3347 48.0601 44.5613 47.9542 44.8004 47.915V47.5792L45.5842 46.917C45.67 46.8634 45.7629 46.8256 45.8593 46.805C46.0649 46.7423 46.2657 46.6612 46.4597 46.5625C46.7518 46.6641 47.0318 46.805 47.2935 46.9823C47.5536 47.1604 47.8341 47.2985 48.1273 47.3926L48.2357 46.917C48.3774 46.917 48.5859 47.0755 48.8694 47.3926C49.0632 47.3722 49.2481 47.2914 49.403 47.1595C49.47 46.9675 49.47 46.7545 49.403 46.5625C49.5143 46.5811 49.6217 46.6221 49.7199 46.6838C49.7787 46.6783 49.8367 46.7022 49.8783 46.7491C49.9228 46.7896 49.9795 46.8097 50.0367 46.805H50.1451C50.3606 46.768 50.5627 46.6647 50.7288 46.5066C50.9148 46.3523 51.1098 46.2121 51.3124 46.0868C51.3377 46.0514 51.3761 46.0308 51.4167 46.0308C51.4572 46.0308 51.4956 46.0514 51.5209 46.0868C51.6086 46.2248 51.6473 46.3944 51.6293 46.5625C51.6277 47.2029 51.2677 47.7735 50.7288 47.9896C50.2274 48.2594 49.7124 48.4961 49.1862 48.6985C49.0755 48.8642 48.9857 49.0462 48.9194 49.2394C48.8194 49.5193 48.6943 49.6498 48.5525 49.6498C48.1109 49.6338 47.672 49.565 47.2435 49.4446C47.1003 49.227 46.9904 48.9843 46.9183 48.7264C46.6594 48.7352 46.4021 48.7758 46.1512 48.8477L45.2757 49.0902C45.1274 49.1272 44.9737 49.1272 44.8254 49.0902H44.8004ZM49.403 45.1728C49.4361 44.8228 49.6424 44.5234 49.9367 44.3986C50.2027 44.2836 50.4852 44.2236 50.7705 44.2214C50.7705 44.4546 50.5703 44.6971 50.1868 44.9303C49.9723 45.0845 49.7393 45.2038 49.4947 45.2847L49.403 45.1728ZM52.6966 42.2627C52.9956 42.4469 53.1641 42.8164 53.1218 43.1954C53.1388 43.3265 53.0995 43.4589 53.0158 43.5525C52.9321 43.6462 52.8137 43.6901 52.6966 43.6711C52.4798 43.6711 52.3047 43.3913 52.1629 42.841C51.6626 42.6824 51.3875 42.4212 51.3291 42.0668C51.2707 41.7124 51.3291 41.4978 51.4375 41.4139C51.575 41.3426 51.7171 41.2834 51.8627 41.2367C52.0045 41.2367 52.0378 41.3766 51.9711 41.7683L52.6966 42.2627ZM62.9524 22.3211C63.0367 22.3256 63.1153 22.3696 63.1692 22.4423C63.432 22.4338 63.6908 22.5152 63.9112 22.6755C64.405 23.2062 64.8364 23.8048 65.1953 24.457C65.2703 24.457 65.3537 24.5783 65.4621 24.8208C65.5705 25.0633 65.6956 25.1752 65.8373 25.1752C66.0302 25.1493 66.2169 25.0828 66.3877 24.9793C66.3877 24.8674 66.3877 24.7648 66.4544 24.6529C67.7575 27.8449 68.4829 31.2938 68.5889 34.8009H64.0863C64.0817 34.77 64.0817 34.7385 64.0863 34.7076C64.1117 34.2489 64.0253 33.7912 63.8362 33.3832C63.6041 32.8364 63.551 32.2158 63.6861 31.6296C63.7864 31.3091 63.8066 30.964 63.7445 30.6316C63.6072 30.637 63.4754 30.6927 63.3693 30.7902C63.2532 30.9502 63.1604 31.1296 63.0941 31.3218C62.9941 31.6017 62.9023 31.8162 62.8356 31.9748V32.04C62.7993 32.1103 62.7712 32.1855 62.7523 32.2639C62.7319 32.3697 62.6952 32.4707 62.6439 32.5624C62.5688 32.8795 62.5021 33.1966 62.4271 33.4951C62.3735 33.8031 62.3735 34.1198 62.4271 34.4278V34.7916H60.1258C60.2627 34.6298 60.431 34.5053 60.6177 34.4278H60.5427L61.1597 34.0827C61.0326 34.0225 60.9504 33.8827 60.9512 33.7283C60.9512 33.4951 60.9512 33.3552 61.0596 33.3179C61.168 33.2806 61.3265 33.178 61.6766 33.0287C61.9075 32.6875 62.098 32.3145 62.2436 31.9188C62.6444 31.1937 62.9267 30.3947 63.0774 29.559C63.0774 29.3725 62.8606 29.1393 62.8356 28.9434C62.8408 28.7712 62.8575 28.5998 62.8857 28.4304C62.8857 27.6003 63.2275 26.1546 62.2687 25.8934C62.1936 25.8934 62.1603 25.7722 62.1603 25.539C62.4053 25.3132 62.4927 24.9369 62.377 24.6062H61.7017C61.7267 24.4552 61.7808 24.312 61.8601 24.1865C61.9581 24.0297 62.0158 23.8458 62.0268 23.6549C62.0303 23.5604 61.9958 23.4692 61.9329 23.406C61.87 23.3429 61.7852 23.3144 61.7017 23.3284C61.5149 23.3194 61.329 23.361 61.1597 23.4497C61.0575 23.5161 60.9438 23.5574 60.8262 23.5709C60.771 23.5814 60.7146 23.5814 60.6594 23.5709L60.5177 23.3284C60.4909 22.8781 60.319 22.454 60.034 22.1345C59.8108 21.8361 59.5241 21.6051 59.2002 21.463C59.2504 21.2998 59.2504 21.1225 59.2002 20.9593L60.034 19.8773L61.3264 20.3997C61.3012 20.7224 61.4275 21.0367 61.66 21.2298C61.8023 21.3598 61.9528 21.4783 62.1102 21.5842C62.2882 21.7143 62.4581 21.8577 62.6188 22.0133V22.0786C62.7773 22.2465 62.8857 22.3211 62.9524 22.3211ZM58.5749 56.9064C58.5044 56.827 58.4081 56.7832 58.3081 56.7852C58.1997 56.7852 58.1496 56.7105 58.1496 56.552C58.1496 56.3934 58.258 56.2349 58.4748 56.0763C58.721 55.8635 58.9065 55.575 59.0085 55.2462C59.1207 55.0096 59.1861 54.7487 59.2002 54.4813C59.2137 54.3527 59.1438 54.2315 59.0335 54.1922C58.8914 54.1227 58.7636 54.0211 58.6583 53.8937C58.5042 53.8053 58.3455 53.7274 58.183 53.6605C57.9786 53.5602 57.7832 53.4384 57.5993 53.2968C57.4022 53.1785 57.2778 52.95 57.2742 52.6998C57.3091 52.4985 57.3622 52.3016 57.4326 52.1122C57.4326 52.0096 57.5076 51.8977 57.5493 51.7951L57.7911 51.5619L60.2425 54.3041C60.2425 54.6212 60.4176 54.7985 60.7428 54.8638L61.0096 55.1622C60.1518 56.059 59.2348 56.8821 58.2664 57.6246C58.3107 57.5106 58.3728 57.4064 58.4498 57.3168C58.4867 57.2784 58.529 57.2469 58.5749 57.2235C58.6022 57.12 58.6022 57.0099 58.5749 56.9064ZM57.099 43.8483C56.8772 43.7729 56.6366 43.8177 56.4487 43.9696C56.1429 44.0667 55.9015 44.3297 55.8067 44.6691C55.8067 44.7437 55.765 44.781 55.6983 44.781C55.5502 44.7857 55.405 44.8272 55.273 44.9023C55.09 44.9682 54.9116 45.0493 54.7394 45.1448C54.5309 45.1448 54.4225 45.0608 54.4225 44.9023C54.4225 44.7437 54.7394 44.5105 55.3814 44.4266C55.6538 44.0411 55.8289 43.8079 55.9067 43.7271C56.0531 43.6093 56.2212 43.5296 56.3987 43.4939C56.7374 43.2878 57.0241 42.9894 57.2325 42.6264C57.3996 42.399 57.5346 42.1442 57.6327 41.8709H57.7327C57.7327 42.2533 57.8828 42.4492 58.1747 42.4492C58.4665 42.4492 58.5832 42.1787 58.7333 41.6284C59.0209 41.749 59.3205 41.8304 59.6255 41.8709C59.9405 41.8951 60.2406 41.7182 60.4009 41.4139H61.7017C61.6981 41.4511 61.6981 41.4886 61.7017 41.5258V41.6191C60.9668 44.238 59.7545 46.6581 58.1413 48.7264C58.1413 48.6052 58.1413 48.4839 58.1413 48.3627C58.1413 48.3627 57.8245 47.2807 57.7578 47.2807C57.6911 47.2807 57.4492 47.5605 57.2491 48.1108C57.049 48.6611 56.9156 49.0436 56.8489 49.1741L55.7816 49.4167C55.4701 49.4986 55.1511 49.5393 54.8311 49.5379C54.5105 49.4609 54.2052 49.3186 53.9306 49.1182C53.6509 48.9241 53.3435 48.7852 53.0217 48.7078C52.7271 48.6032 52.4262 48.5222 52.1212 48.4653C51.7293 48.3907 51.5376 48.2694 51.5376 48.1108C51.5376 47.9523 51.6793 47.7564 51.9628 47.7564C52.2453 47.7844 52.5246 47.8437 52.7966 47.9336L54.0723 48.2881L55.2397 48.6425C55.4454 48.7238 55.6576 48.7832 55.8734 48.8197L56.5154 48.5865C56.5365 48.3532 56.608 48.1291 56.7238 47.9336C56.8448 47.7403 56.9194 47.5155 56.9406 47.2807C57.1215 46.8664 57.2532 46.4274 57.3325 45.9749C57.4394 45.5083 57.4981 45.0294 57.5076 44.5478C57.4242 44.1095 57.3075 43.8483 57.099 43.8483ZM59.9173 36.6477H62.4187C62.3699 37.8156 62.2304 38.9765 62.0018 40.1174C61.872 39.7335 61.6891 39.3747 61.4599 39.0541L60.626 38.1214C60.551 37.7296 60.501 37.4498 60.4593 37.2913C60.4259 37.19 60.378 37.0955 60.3175 37.0115C60.1656 36.8991 60.0305 36.7606 59.9173 36.6011V36.6477ZM60.9512 51.1329C60.7344 51.1329 60.6344 51.1982 60.6344 51.3101C60.6137 51.5576 60.5803 51.8037 60.5343 52.0469L58.9501 50.2841C61.1067 47.6698 62.6482 44.4966 63.436 41.0501L63.511 40.9755C63.8668 41.1248 64.1002 41.1248 64.2114 40.9755C64.2933 40.8766 64.3482 40.7537 64.3698 40.6211C64.2981 40.2508 64.1121 39.9206 63.8445 39.6884H63.7111C63.8807 38.6687 63.9866 37.6371 64.028 36.6011H68.5889C68.3963 43.0415 66.1175 49.184 62.1769 53.8844L61.9768 53.6699V53.6232C61.9101 53.0729 61.8351 52.5413 61.7434 52.0189C61.6516 51.4966 61.3765 51.1329 60.9512 51.1329ZM59.8256 25.3804C59.819 25.5847 59.7823 25.7864 59.7172 25.9774C59.6569 26.1802 59.5874 26.3795 59.5088 26.5743C59.7416 26.903 60.0237 27.1838 60.3426 27.4044C60.6796 27.6549 61.0001 27.9324 61.3014 28.2345C61.5117 28.6669 61.6714 29.1277 61.7767 29.6056C61.9038 30.0141 61.9932 30.436 62.0435 30.8648C61.9789 31.1619 61.8719 31.4453 61.7267 31.7043C61.5106 32.1347 61.1088 32.4072 60.6677 32.4225L60.5593 32.3012C60.5824 32.0538 60.6536 31.8151 60.7678 31.6017C60.8822 31.3842 60.9559 31.1431 60.9846 30.8928C61.2181 30.7491 61.3762 30.4891 61.4098 30.1933L61.0846 30.016C60.8947 29.8581 60.7188 29.6801 60.5593 29.4844C60.5593 29.2512 60.3426 29.1393 59.9257 29.1393C59.7349 29.1282 59.5465 29.1908 59.392 29.3165C59.2205 29.4634 59.0424 29.6004 58.8584 29.7269L58.6499 29.2512C58.7182 29.0974 58.7552 28.9286 58.7583 28.7569L57.9245 27.1619C57.5614 26.9457 57.1656 26.8066 56.7572 26.7515C56.4826 26.6834 56.198 26.6834 55.9234 26.7515C55.6456 26.8026 55.3614 26.7867 55.0896 26.7049C54.7596 26.6666 54.4319 26.7968 54.1974 27.0593C53.9339 27.281 53.6983 27.5414 53.497 27.8335C53.3886 27.9734 53.497 28.1692 53.2219 28.0946C53.121 28.0023 53.0314 27.8957 52.955 27.7775L57.8078 22.3957C57.8419 22.4585 57.881 22.5178 57.9245 22.5729L58.3498 23.1046C58.4998 23.3004 58.6499 23.515 58.8 23.7388C59.1661 24.2666 59.5084 24.8144 59.8256 25.3804ZM48.2524 61.0104C48.6538 61.3709 49.116 61.6374 49.6115 61.7939C48.2853 62.1024 46.938 62.2834 45.5842 62.3349V57.2329C45.7635 57.5443 45.9924 57.8162 46.2596 58.035C46.5603 58.1498 46.8757 58.2096 47.1934 58.2122C47.6687 58.2589 47.9105 58.3521 47.9105 58.5107C47.8989 58.7001 47.8443 58.883 47.7521 59.0423C47.6548 59.2031 47.5973 59.3897 47.5853 59.5833C47.5945 60.1499 47.8416 60.6787 48.2524 61.0104ZM45.5842 69.5635V64.135C47.3641 64.0722 49.1331 63.8002 50.8622 63.3235C50.8655 63.3608 50.8655 63.3983 50.8622 63.4355C50.8702 63.4848 50.8702 63.5354 50.8622 63.5847C51.2785 63.8788 51.6384 64.2624 51.9211 64.7133C52.0629 65.0304 52.4548 65.189 53.0884 65.189C53.447 65.189 53.6721 65.1144 53.7805 64.9558C53.8936 64.7859 54.0191 64.6268 54.1557 64.4801C54.3032 64.3148 54.483 64.1903 54.681 64.1164C54.8613 64.0712 55.016 63.9423 55.1063 63.7619C55.4262 63.6377 55.6936 63.3851 55.8567 63.0531C56.1403 62.8129 56.3595 62.4903 56.4904 62.1203C56.6644 62.1024 56.8213 61.9957 56.9156 61.8312C57.1235 61.4466 57.2676 61.0232 57.3409 60.5813L57.5243 60.4601C57.5203 60.4011 57.5203 60.3419 57.5243 60.2829C59.1719 59.1978 60.7071 57.9122 62.1019 56.4494L65.5288 60.2922C60.1304 66.0287 53.0271 69.3307 45.5842 69.5635ZM66.7462 58.9957L63.3109 55.1622C67.5581 50.1252 70.0082 43.5219 70.1982 36.6011H75.0426C74.8482 44.9568 71.8924 52.9355 66.7462 58.9957ZM75.0426 34.8009H70.1982C70.0369 29.0821 68.3273 23.5528 65.2954 18.9446C65.2445 18.7637 65.1624 18.5957 65.0536 18.4503C64.9718 18.3482 64.8794 18.2574 64.7784 18.1798C64.3865 17.6108 63.9446 17.0699 63.536 16.5382C63.4773 16.4176 63.4324 16.2891 63.4026 16.1558L66.7379 12.4249C71.882 18.4799 74.8403 26.4508 75.0426 34.8009ZM45.5842 1.87581C53.0579 2.10108 60.19 5.42534 65.5955 11.203L62.6439 14.5049C62.5724 14.3441 62.5165 14.1753 62.4771 14.0012C62.2436 13.768 62.0936 13.6281 62.0352 13.6281C61.7653 13.4904 61.5812 13.2027 61.5516 12.8726C61.5415 12.5915 61.4476 12.3222 61.2848 12.1078C60.8236 11.9233 60.4422 11.5499 60.2175 11.0631C59.934 10.5221 59.6505 10.2423 59.3837 10.2423C59.1523 10.3203 58.9026 10.29 58.6916 10.1584C58.4727 10.0458 58.2391 9.97333 57.9996 9.94386C57.7454 9.94139 57.4923 9.98228 57.2491 10.0651C56.9757 10.1617 56.6972 10.2396 56.4153 10.2983L56.3069 10.4195C53.0933 8.55498 49.5585 7.48612 45.9427 7.2856C46.2179 6.79126 46.2596 6.46481 46.0428 6.35288C45.9844 6.28759 45.826 6.35288 45.5842 6.64202V1.87581ZM45.5842 9.09508C49.0194 9.22124 52.3897 10.1757 55.4648 11.8932C55.4609 11.9211 55.4609 11.9494 55.4648 11.9772C55.5899 12.1171 55.7316 12.2943 55.89 12.4995C56.0485 12.7047 56.1902 12.8913 56.2569 12.9659C56.3356 13.3183 56.4359 13.6642 56.5571 14.0012C56.653 14.2054 56.7616 14.4018 56.8823 14.5888C56.8098 14.9317 56.8671 15.2928 57.0407 15.5868C57.2127 15.9353 57.4078 16.2689 57.6243 16.5848L58.0496 16.5289C58.2224 16.488 58.3983 16.4662 58.5749 16.4636C58.7742 16.4983 58.9504 16.6275 59.0585 16.818C59.2206 17.0291 59.3451 17.2728 59.4254 17.5362C59.4725 17.6612 59.5034 17.7931 59.5171 17.928L58.2164 19.383C58.0833 18.6987 57.8702 18.037 57.5827 17.415C57.3613 17.1754 57.0542 17.062 56.7489 17.1072C56.6738 17.0325 56.432 16.6874 56.0068 16.0905C55.5815 15.4936 55.3397 15.1578 55.2647 15.1578C55.1486 15.1469 55.0337 15.1909 54.9478 15.279C55.0128 15.4235 55.0852 15.5636 55.1646 15.6988L55.5899 16.4822C55.5983 16.549 55.5782 16.6164 55.5356 16.664C55.493 16.7117 55.4328 16.7342 55.3731 16.7247C55.4317 17.0231 55.64 17.2561 55.9067 17.3217L55.7983 17.5549L56.1068 18.2544C53.0417 15.7448 49.3793 14.3099 45.5842 14.1318V9.09508ZM45.5842 16.0066C49.711 16.1958 53.6462 18.0056 56.6988 21.1179L53.4386 24.7648C51.2666 22.6057 48.5095 21.3248 45.6092 21.1272L45.5842 16.0066ZM45.5842 22.974C47.8969 23.163 50.1025 24.1395 51.9044 25.7722C51.825 25.8033 51.7515 25.8507 51.6876 25.9121C51.6238 25.9805 51.5506 26.0372 51.4709 26.08C51.4042 26.1173 51.3708 26.2105 51.3708 26.3598C51.3708 26.5556 51.6043 26.6303 51.771 26.6582L50.5203 27.992C50.3471 28.0909 50.1871 28.2165 50.045 28.3651C49.7532 28.5237 49.5948 28.6636 49.5531 28.7848C49.5114 28.9061 49.4947 29.0087 49.453 29.1952L49.0361 29.6616C48.9753 29.6713 48.9135 29.6713 48.8527 29.6616C48.711 29.6616 48.4942 29.503 48.2023 29.1766C47.9105 28.8501 47.6937 28.7009 47.552 28.7009C47.3758 28.6829 47.2009 28.747 47.0684 28.8781C46.9688 28.9907 46.8124 29.0101 46.6931 28.9248C46.5514 28.7662 46.6931 28.589 47.1768 28.3838C47.6604 28.1786 47.9605 28.0387 48.1023 27.964C48.6447 27.5191 48.9565 26.804 48.9361 26.052C48.9361 25.6509 48.7943 25.4457 48.5025 25.4457L48.1773 25.7908C47.8973 25.9307 47.6407 26.1232 47.4186 26.3598L46.8766 26.9381C46.671 26.8423 46.4485 26.8008 46.2262 26.8168H45.5925L45.5842 22.974ZM44.642 31.1446C44.692 31.2659 44.7587 31.3312 44.8338 31.3312C45.0199 31.3271 45.2018 31.3927 45.3507 31.5177C45.512 31.6329 45.7112 31.6603 45.8927 31.5923C45.9138 31.6791 45.9573 31.757 46.0178 31.8162C46.0896 31.9915 46.2554 32.0938 46.4263 32.068L46.5514 32.2173C46.5781 32.2578 46.6004 32.3016 46.6181 32.3478C46.6691 32.4915 46.7275 32.6316 46.7932 32.7676H46.8349V32.8702C46.9377 32.9389 47.0607 32.9591 47.1768 32.9261C47.2631 32.892 47.3573 32.892 47.4436 32.9261C47.4436 33.0101 47.4436 33.094 47.4436 33.1873H47.5103C47.5029 33.2835 47.5029 33.3802 47.5103 33.4764C47.5417 33.6515 47.5585 33.8295 47.5603 34.0081V34.2413C47.5629 34.2742 47.5523 34.3068 47.5314 34.3302C47.5105 34.3536 47.4814 34.3654 47.4519 34.3625C47.2552 34.5317 47.1312 34.7855 47.1101 35.0621C47.1101 35.2206 47.2018 35.2766 47.3935 35.2393C47.5477 35.1813 47.7169 35.2561 47.7938 35.4165C47.9522 35.6047 48.0338 35.858 48.0189 36.116V37.1793C48.0105 37.3209 48.0711 37.4564 48.1773 37.5338C48.2857 37.6084 48.3357 37.683 48.3357 37.767C48.3296 38.0629 48.2932 38.357 48.2274 38.6437C48.1892 38.9273 48.0792 39.1927 47.9105 39.4086C47.8327 39.4832 47.6492 39.4832 47.3602 39.4086C47.1093 39.3367 46.852 39.296 46.5931 39.2873C46.4513 39.2873 46.3013 39.5298 46.1595 39.9962C46.0253 40.3442 45.9138 40.7027 45.826 41.0688C45.7593 41.3859 45.6092 41.5445 45.3924 41.5445C45.2464 41.5441 45.1009 41.5629 44.9588 41.6004H45.0255L44.667 42.244L44.5503 42.4119C43.3457 42.331 42.2056 41.7759 41.3318 40.8449L41.8904 40.22C42.2389 40.1649 42.5822 40.0744 42.916 39.9495L43.0994 39.8656C43.6664 39.5858 43.6164 39.0728 43.9333 38.5225C44.1167 38.1587 44.6503 37.7483 44.2251 37.3379C44.7004 36.4052 42.4908 36.4052 42.0989 36.6011C41.707 36.7969 41.9321 37.3939 41.6903 37.8043C41.5652 38.0188 41.3568 38.0188 41.19 38.168C40.8246 38.4942 40.538 38.9174 40.3562 39.3992C40.2136 39.1001 40.0937 38.7881 39.9977 38.4665H40.0811C40.0394 38.3732 40.0227 38.2986 40.0811 38.2706H40.1895V38.3919C40.4646 38.4665 40.6481 38.4665 40.7148 38.3919C40.7828 38.1761 40.8358 37.9546 40.8732 37.7296C41.0266 37.2461 41.2221 36.7806 41.4568 36.3399C41.3301 36.2652 41.2388 36.1323 41.2067 35.9761C41.2067 35.8176 41.09 35.7803 40.9566 35.8549C40.8329 35.923 40.7551 36.0644 40.7564 36.2186C40.7476 36.4003 40.6758 36.5709 40.5563 36.6943C40.453 36.8344 40.3016 36.9191 40.1394 36.9275C40.1504 36.8302 40.1206 36.7328 40.0586 36.6634C39.9967 36.5941 39.9095 36.5608 39.8226 36.5731C39.6575 36.5868 39.5043 36.6742 39.3973 36.8156C39.2556 36.8156 38.9221 36.8156 38.3884 36.9275C38.0571 37.0192 37.7108 37.0192 37.3795 36.9275C37.2378 36.7783 37.3795 36.6104 37.9132 36.4518C37.8691 35.9521 38.0319 35.4572 38.3551 35.1087C38.552 35.2378 38.7705 35.3204 38.9971 35.3512L39.2056 35.1087H39.314C39.5224 35.1087 39.6475 35.3139 39.6808 35.715C39.7142 36.116 39.8059 36.3119 39.9477 36.3119C40.1133 36.3003 40.2672 36.2125 40.3729 36.0694V35.4538C40.5146 34.8102 40.623 34.3718 40.6897 34.1293V33.7749C40.7691 33.5586 40.882 33.3597 41.0233 33.1873H41.1483C41.2892 33.0556 41.4591 32.9686 41.6403 32.9355C41.755 32.7088 41.826 32.4578 41.8487 32.1986C42.0655 32.124 42.4324 31.9561 42.966 31.7136C43.4997 31.4711 43.7998 31.2286 43.7998 30.9861V30.9208C44.0362 30.8646 44.2758 30.8272 44.5169 30.8089C44.5287 30.9208 44.5726 31.0255 44.642 31.1073V31.1446ZM43.9666 1.87581V7.25762C37.785 7.47271 31.8856 10.2019 27.3739 14.9339L23.9469 11.1004C29.3685 5.35808 36.5024 2.07096 43.9666 1.87581ZM22.8129 12.3969L26.2399 16.2304C21.9961 21.2737 19.5467 27.8782 19.3526 34.8009H14.4999C14.6959 26.4392 17.6581 18.4562 22.8129 12.3969Z" fill="black"/>
<path d="M139.245 14.16L139.437 17.1354C141.019 14.8716 143.474 13.592 146.041 13.6936C148.476 13.6936 150.285 14.4864 151.477 16.0907C152.67 17.695 153.27 20.0828 153.303 23.2633V39.8658H147.167V23.4312C147.265 22.2934 146.966 21.1572 146.333 20.26C145.549 19.5157 144.529 19.1589 143.506 19.2713C141.895 19.197 140.387 20.1563 139.621 21.743V39.8658H133.484V14.16H139.245Z" fill="black"/>
<path d="M158.99 7.47217C158.963 6.51797 159.3 5.59582 159.916 4.93516C161.375 3.61504 163.46 3.61504 164.919 4.93516C165.547 5.58878 165.893 6.513 165.869 7.47217C165.901 8.4393 165.558 9.37464 164.927 10.0372C163.475 11.379 161.376 11.379 159.924 10.0372C159.297 9.37227 158.957 8.43764 158.99 7.47217ZM165.511 39.8283H159.357V14.1598H165.511V39.8283Z" fill="black"/>
<path d="M178.184 7.84546V14.16H182.112V19.1967H178.184V32.0216C178.125 32.7479 178.296 33.4743 178.668 34.0736C179.191 34.5526 179.864 34.7746 180.536 34.6892C181.142 34.6965 181.748 34.6403 182.345 34.5213V39.7259C181.14 40.1362 179.886 40.3437 178.626 40.3415C174.324 40.3415 172.131 37.9102 172.048 33.0476V19.1967H168.712V14.16H172.048V7.84546H178.184Z" fill="black"/>
<path d="M148.976 81.2226C148.663 80.4959 148.455 79.7184 148.359 78.9188C146.885 80.7804 144.744 81.8069 142.523 81.717C140.478 81.7964 138.481 81.0141 136.928 79.5251C135.479 78.1583 134.661 76.1321 134.701 74.0127C134.593 71.5438 135.614 69.1824 137.411 67.7448C139.221 66.2897 141.822 65.5529 145.241 65.5342H148.059V64.0419C148.104 63.0111 147.807 61.998 147.225 61.1971C146.556 60.422 145.608 60.0276 144.649 60.1244C143.775 60.0697 142.912 60.3639 142.214 60.9546C141.635 61.5306 141.327 62.3746 141.38 63.2397H135.243C135.243 61.7507 135.673 60.3014 136.469 59.1078C137.365 57.7752 138.571 56.7429 139.954 56.1231C141.56 55.3788 143.286 55.0106 145.024 55.0411C147.451 54.9021 149.841 55.7502 151.753 57.4289C153.456 59.1259 154.376 61.597 154.254 64.1445V75.2812C154.169 77.1788 154.48 79.0725 155.163 80.8122V81.2226H148.976ZM143.898 76.4937C144.77 76.5027 145.629 76.2687 146.4 75.8128C147.113 75.3958 147.695 74.7449 148.067 73.9474V69.5356H145.774C142.706 69.5356 141.072 70.7233 140.872 73.0986V73.4997C140.864 74.3069 141.167 75.0788 141.705 75.6169C142.31 76.2108 143.094 76.5244 143.898 76.4937Z" fill="black"/>
<path d="M165.277 49.2021V55.5167H169.204V60.5534H165.277V73.3783C165.219 74.103 165.393 74.8272 165.769 75.421C166.289 75.9068 166.965 76.1297 167.637 76.0366C168.24 76.0462 168.843 75.9932 169.438 75.878V81.0733C168.236 81.4865 166.985 81.6971 165.727 81.6982C161.419 81.6982 159.224 79.2669 159.14 74.4043V60.5534H155.805V55.5167H159.14V49.2021H165.277Z" fill="black"/>
<path d="M172.014 48.8662C171.987 47.912 172.324 46.9899 172.94 46.3292C174.399 45.0091 176.484 45.0091 177.943 46.3292C179.192 47.7427 179.192 50.0177 177.943 51.4312C176.491 52.7731 174.392 52.7731 172.94 51.4312C172.316 50.7647 171.979 49.8302 172.014 48.8662ZM178.535 81.2223H172.381V55.5165H178.535V81.2223Z" fill="black"/>
<path d="M182.07 68.0991C182.029 65.7456 182.48 63.414 183.387 61.2902C184.204 59.3472 185.523 57.7227 187.173 56.6266C188.924 55.5258 190.91 54.9777 192.918 55.041C195.73 54.9193 198.468 56.069 200.514 58.2309C202.548 60.5393 203.719 63.6276 203.791 66.8679L203.832 68.6307C203.832 72.573 202.848 75.735 200.881 78.1165C196.456 82.8734 189.463 82.8734 185.038 78.1165C183.059 75.735 182.073 72.5047 182.078 68.4255L182.07 68.0991ZM188.207 68.5934C188.094 70.5552 188.522 72.5085 189.432 74.1898C190.271 75.4058 191.566 76.1181 192.939 76.1181C194.311 76.1181 195.607 75.4058 196.445 74.1898C197.279 72.9088 197.696 70.8662 197.696 68.0618C197.806 66.0966 197.369 64.1414 196.445 62.4655C195.651 61.1737 194.318 60.4302 192.918 60.4974C191.532 60.4336 190.214 61.1741 189.432 62.4561C188.615 63.8459 188.207 65.8792 188.207 68.6214V68.5934Z" fill="black"/>
<path d="M212.387 55.5167L212.579 58.4828C214.161 56.219 216.616 54.9394 219.183 55.041C221.617 55.041 223.435 55.8432 224.619 57.4381C225.803 59.0331 226.42 61.4302 226.445 64.6201V81.2225H220.308V64.7786C220.404 63.6411 220.105 62.5059 219.474 61.6074C218.686 60.8683 217.663 60.5183 216.64 60.6374C215.028 60.5608 213.519 61.5207 212.754 63.1091V81.2225H206.617V55.5167H212.387Z" fill="black"/>
<path d="M242.971 74.115C242.972 73.2722 242.541 72.5034 241.862 72.1376C240.736 71.5041 239.53 71.0669 238.285 70.8411C232.815 69.554 230.083 66.9548 230.089 63.0436C230.065 60.8045 230.994 58.6858 232.59 57.3353C234.516 55.7091 236.893 54.8964 239.302 55.0408C241.8 54.9024 244.266 55.7145 246.298 57.3446C247.987 58.7477 248.963 60.9799 248.916 63.3327H242.779C242.806 62.4288 242.505 61.551 241.946 60.8983C241.207 60.1998 240.248 59.8635 239.286 59.9656C238.428 59.9048 237.578 60.182 236.884 60.7491C236.344 61.2332 236.036 61.9709 236.051 62.7451C236.041 63.5188 236.413 64.2358 237.018 64.6106C238.03 65.2252 239.131 65.6356 240.27 65.8231C241.583 66.1007 242.876 66.4873 244.139 66.9797C247.379 68.3041 249 70.608 249 73.8911C249.024 76.1764 248.01 78.3193 246.306 79.5807C244.232 81.1008 241.779 81.8424 239.302 81.698C237.539 81.7321 235.789 81.3375 234.175 80.5414C232.769 79.8746 231.548 78.7989 230.639 77.4262C229.813 76.1724 229.366 74.6561 229.364 73.0983H235.2C235.203 74.1879 235.648 75.2173 236.409 75.8965C237.294 76.5765 238.356 76.905 239.428 76.8292C240.363 76.9042 241.295 76.6428 242.087 76.083C242.66 75.6361 242.993 74.8959 242.971 74.115Z" fill="black"/>
<path d="M205.583 26.8258C205.583 22.8151 206.386 19.6252 207.993 17.2561C209.527 14.9178 211.998 13.583 214.588 13.6931C216.718 13.6381 218.754 14.6674 220.125 16.4913V3.3772H226.287V39.8653H220.742L220.45 37.1324C219.053 39.1947 216.859 40.3869 214.547 40.341C211.983 40.4193 209.549 39.0839 208.035 36.7687C206.4 34.3809 205.583 31.0666 205.583 26.8258ZM211.72 27.3388C211.616 29.2678 212.007 31.19 212.846 32.8792C213.545 34.1325 214.795 34.8668 216.114 34.8006C217.822 34.9309 219.421 33.8595 220.125 32.1144V21.957C219.44 20.2155 217.853 19.1412 216.156 19.2708C213.199 19.2708 211.72 21.9601 211.72 27.3388Z" fill="black"/>
<path d="M129.323 5.28003V28.0571C129.323 31.844 128.264 34.838 126.146 37.0392C124.029 39.2404 121.138 40.3411 117.475 40.3411C113.867 40.3411 111.002 39.2715 108.878 37.1325C106.755 34.9934 105.671 32.0554 105.626 28.3183V5.28003H111.997V28.1037C111.997 30.3671 112.48 32.0181 113.448 33.0565C114.555 34.147 116.002 34.7065 117.475 34.6141C121.06 34.6141 122.881 32.5093 122.936 28.2996V5.28003H129.323Z" fill="black"/>
<path d="M131.066 81.2222H124.696L112.297 58.4638V81.2222H105.894V46.6462H112.264L124.679 69.442V46.6462H131.033L131.066 81.2222Z" fill="black"/>
<path d="M194.527 40.3414C191.545 40.4922 188.651 39.193 186.589 36.7784C184.58 34.3165 183.515 31.0715 183.621 27.7403V26.8076C183.496 23.3887 184.496 20.0372 186.431 17.3871C188.292 14.9324 191.06 13.5734 193.935 13.7028C197.026 13.7028 199.43 14.7475 201.148 16.8368C202.865 18.9261 203.721 21.7522 203.716 25.3152V29.0461H190.05L190.008 29.186C190.064 30.7284 190.601 32.2003 191.525 33.3459C192.474 34.4611 193.811 35.0572 195.186 34.9782C196.336 35.0109 197.485 34.857 198.596 34.5212C199.631 34.1489 200.628 33.6582 201.573 33.0568L203.24 37.338C202.142 38.2964 200.896 39.0204 199.563 39.4739C197.938 40.0671 196.237 40.3601 194.527 40.3414ZM193.977 19.0287C192.904 18.994 191.886 19.5565 191.259 20.5303C190.541 21.6678 190.114 23.003 190.025 24.3918L190.091 24.5131H197.687V23.8975C197.757 22.6315 197.436 21.3771 196.778 20.3438C196.088 19.4274 195.045 18.9381 193.977 19.0287Z" fill="black"/>
</svg>
