<svg width="42" height="42" viewBox="0 0 42 42" fill="none" xmlns="http://www.w3.org/2000/svg">
<path d="M29.8791 30.5815C27.6361 28.0764 24.3771 26.5 20.75 26.5C17.1229 26.5 13.8636 28.0764 11.6206 30.5815M20.75 33.5C12.0515 33.5 5 26.4485 5 17.75C5 9.05151 12.0515 2 20.75 2C29.4485 2 36.5 9.05151 36.5 17.75C36.5 26.4485 29.4485 33.5 20.75 33.5ZM20.75 21.25C17.8505 21.25 15.5 18.8995 15.5 16C15.5 13.1005 17.8505 10.75 20.75 10.75C23.6495 10.75 26 13.1005 26 16C26 18.8995 23.6495 21.25 20.75 21.25Z" stroke="#000100" stroke-width="2" stroke-linecap="round" stroke-linejoin="round"/>
</svg>
